<svg width="40" height="40" viewBox="0 0 40 40" fill="none" xmlns="http://www.w3.org/2000/svg">
<rect width="40" height="40" fill="white"/>
<path d="M13.9596 5.09497C13.3415 5.32634 13.309 5.57424 13.309 10.4496V15.1928L12.8698 15.2589C11.8126 15.4076 11.8451 15.5233 11.8451 12.0031C11.8451 10.2348 11.7963 8.76389 11.7313 8.73084C11.4548 8.56557 8.88488 10.4992 7.63247 11.7883C5.76199 13.7384 4.47704 15.7877 3.63126 18.1676C2.89933 20.2334 2.72041 21.4233 2.62282 25.0096L2.52523 28.4306L1.28909 28.8108L0.0529402 29.2074L0.0041449 30.3477C-0.0121202 30.9923 0.02041 31.5872 0.0854703 31.6699C0.540893 32.2814 7.90898 34.0662 12.4957 34.6777C15.6512 35.1074 24.3042 35.1074 27.5409 34.6777C31.1193 34.1985 35.7385 33.1738 38.6825 32.1987L39.9024 31.7856L39.9512 30.48L40 29.1743L38.7313 28.7612L37.4626 28.3645L37.3813 24.9766C37.2837 21.4894 37.1048 20.3326 36.4054 18.2998C35.3482 15.2919 33.3964 12.4659 31.0542 10.5322C29.8018 9.52412 28.3542 8.59863 28.2078 8.73084C28.159 8.79695 28.1102 10.2678 28.1102 12.0196V15.1928L27.6223 15.2589C27.362 15.3085 27.053 15.2754 26.9554 15.2093C26.809 15.1267 26.7602 13.9698 26.7765 11.0776C26.809 6.53279 26.7277 5.72298 26.2885 5.27676C26.012 4.99581 25.7518 4.97928 23.3445 5.01233L20.7096 5.06191L20.6608 12.7799L20.6283 20.5144H19.9777H19.3271L19.2945 12.7799L19.2457 5.06191L16.7247 5.02886C15.3421 5.01233 14.0897 5.04539 13.9596 5.09497ZM32.6319 27.8192L32.5831 28.5298H19.9777H7.37223L7.32343 28.0671C7.20958 27.0589 6.29874 27.125 20.059 27.125H32.6807L32.6319 27.8192Z" fill="#EDC72A"/>
</svg>
