<svg width="32" height="24" viewBox="0 0 32 24" fill="none" xmlns="http://www.w3.org/2000/svg">
<path d="M11.1677 0.0759754C10.6732 0.261074 10.6472 0.459394 10.6472 4.35969V8.15422L10.2959 8.2071C9.45008 8.32609 9.4761 8.41864 9.4761 5.6025C9.4761 4.18781 9.43707 3.01111 9.38502 2.98467C9.16381 2.85246 7.10791 4.39935 6.10598 5.43062C4.60959 6.99074 3.58164 8.63019 2.90501 10.5341C2.31946 12.1867 2.17633 13.1387 2.09826 16.0077L2.02019 18.7445L1.03127 19.0486L0.0423521 19.3659L0.00331592 20.2782C-0.00969615 20.7938 0.016328 21.2698 0.0683763 21.3359C0.432714 21.8251 6.32718 23.253 9.99659 23.7422C12.5209 24.0859 19.4434 24.0859 22.0328 23.7422C24.8954 23.3588 28.5908 22.539 30.946 21.759L31.9219 21.4284L31.961 20.384L32 19.3395L30.9851 19.0089L29.9701 18.6916L29.9051 15.9813C29.827 13.1915 29.6839 12.2661 29.1243 10.6398C28.2785 8.23355 26.7171 5.97269 24.8434 4.4258C23.8414 3.6193 22.6834 2.8789 22.5662 2.98467C22.5272 3.03756 22.4882 4.21426 22.4882 5.61572V8.15422L22.0978 8.2071C21.8896 8.24677 21.6424 8.22032 21.5643 8.16744C21.4472 8.10133 21.4082 7.17584 21.4212 4.8621C21.4472 1.22623 21.3821 0.578386 21.0308 0.221409C20.8096 -0.00335312 20.6014 -0.0165749 18.6756 0.00986862L16.5677 0.0495319L16.5286 6.2239L16.5026 12.4115H15.9821H15.4617L15.4356 6.2239L15.3966 0.0495319L13.3797 0.0230885C12.2737 0.00986862 11.2718 0.0363102 11.1677 0.0759754ZM26.1055 18.2553L26.0665 18.8238H15.9821H5.89778L5.85875 18.4536C5.76766 17.6471 5.03899 17.7 16.0472 17.7H26.1446L26.1055 18.2553Z" fill="#EDC72A"/>
</svg>
