<svg width="40" height="40" viewBox="0 0 40 40" fill="none" xmlns="http://www.w3.org/2000/svg">
<path d="M38.3333 29.02V34.52C38.3354 35.0306 38.2308 35.536 38.0263 36.0038C37.8217 36.4716 37.5217 36.8916 37.1455 37.2368C36.7692 37.5819 36.325 37.8447 35.8414 38.0083C35.3577 38.1719 34.8452 38.2326 34.3367 38.1867C28.6952 37.5737 23.2762 35.6459 18.515 32.5584C14.0853 29.7436 10.3298 25.988 7.51499 21.5584C4.41662 16.7756 2.48844 11.3302 1.88666 5.66335C1.84085 5.15637 1.9011 4.64541 2.06358 4.16299C2.22606 3.68058 2.48721 3.23728 2.8304 2.86132C3.17359 2.48536 3.5913 2.18498 4.05694 1.97931C4.52259 1.77363 5.02595 1.66716 5.53499 1.66668H11.035C11.9247 1.65792 12.7873 1.97299 13.4619 2.55316C14.1365 3.13332 14.5771 3.939 14.7017 4.82002C14.9338 6.58014 15.3643 8.30835 15.985 9.97168C16.2317 10.6279 16.285 11.341 16.1388 12.0266C15.9926 12.7122 15.6529 13.3416 15.16 13.84L12.8317 16.1683C15.4415 20.7582 19.2418 24.5585 23.8317 27.1683L26.16 24.84C26.6585 24.3471 27.2878 24.0074 27.9734 23.8612C28.659 23.715 29.3721 23.7684 30.0283 24.015C31.6917 24.6357 33.4199 25.0662 35.18 25.2984C36.0706 25.424 36.8839 25.8726 37.4653 26.5588C38.0467 27.245 38.3556 28.1209 38.3333 29.02Z" stroke="black" stroke-width="2" stroke-linecap="round" stroke-linejoin="round"/>
</svg>
